<svg id="visual" viewBox="0 0 900 600" width="900" height="600" xmlns="http://www.w3.org/2000/svg" xmlns:xlink="http://www.w3.org/1999/xlink" version="1.1"><rect x="0" y="0" width="900" height="600" fill="#FFFFFF"></rect><path d="M709 0L814 0L814 30L848 30L848 60L833 60L833 90L755 90L755 120L839 120L839 150L820 150L820 180L772 180L772 210L764 210L764 240L831 240L831 270L831 270L831 300L758 300L758 330L709 330L709 360L829 360L829 390L819 390L819 420L705 420L705 450L858 450L858 480L807 480L807 510L770 510L770 540L805 540L805 570L870 570L870 600L0 600L0 570L0 570L0 540L0 540L0 510L0 510L0 480L0 480L0 450L0 450L0 420L0 420L0 390L0 390L0 360L0 360L0 330L0 330L0 300L0 300L0 270L0 270L0 240L0 240L0 210L0 210L0 180L0 180L0 150L0 150L0 120L0 120L0 90L0 90L0 60L0 60L0 30L0 30L0 0L0 0Z" fill="#284b63"></path><path d="M737 0L649 0L649 30L672 30L672 60L684 60L684 90L769 90L769 120L717 120L717 150L724 150L724 180L680 180L680 210L681 210L681 240L694 240L694 270L648 270L648 300L644 300L644 330L695 330L695 360L714 360L714 390L776 390L776 420L646 420L646 450L755 450L755 480L760 480L760 510L699 510L699 540L731 540L731 570L730 570L730 600L0 600L0 570L0 570L0 540L0 540L0 510L0 510L0 480L0 480L0 450L0 450L0 420L0 420L0 390L0 390L0 360L0 360L0 330L0 330L0 300L0 300L0 270L0 270L0 240L0 240L0 210L0 210L0 180L0 180L0 150L0 150L0 120L0 120L0 90L0 90L0 60L0 60L0 30L0 30L0 0L0 0Z" fill="#3b586e"></path><path d="M574 0L649 0L649 30L638 30L638 60L682 60L682 90L673 90L673 120L613 120L613 150L562 150L562 180L685 180L685 210L569 210L569 240L596 240L596 270L704 270L704 300L590 300L590 330L681 330L681 360L623 360L623 390L593 390L593 420L562 420L562 450L584 450L584 480L704 480L704 510L648 510L648 540L647 540L647 570L571 570L571 600L0 600L0 570L0 570L0 540L0 540L0 510L0 510L0 480L0 480L0 450L0 450L0 420L0 420L0 390L0 390L0 360L0 360L0 330L0 330L0 300L0 300L0 270L0 270L0 240L0 240L0 210L0 210L0 180L0 180L0 150L0 150L0 120L0 120L0 90L0 90L0 60L0 60L0 30L0 30L0 0L0 0Z" fill="#4c6579"></path><path d="M574 0L574 0L574 30L546 30L546 60L625 60L625 90L523 90L523 120L627 120L627 150L538 150L538 180L571 180L571 210L550 210L550 240L543 240L543 270L652 270L652 300L512 300L512 330L619 330L619 360L505 360L505 390L583 390L583 420L597 420L597 450L578 450L578 480L504 480L504 510L648 510L648 540L630 540L630 570L522 570L522 600L0 600L0 570L0 570L0 540L0 540L0 510L0 510L0 480L0 480L0 450L0 450L0 420L0 420L0 390L0 390L0 360L0 360L0 330L0 330L0 300L0 300L0 270L0 270L0 240L0 240L0 210L0 210L0 180L0 180L0 150L0 150L0 120L0 120L0 90L0 90L0 60L0 60L0 30L0 30L0 0L0 0Z" fill="#5d7385"></path><path d="M429 0L438 0L438 30L499 30L499 60L577 60L577 90L568 90L568 120L556 120L556 150L514 150L514 180L531 180L531 210L455 210L455 240L555 240L555 270L518 270L518 300L472 300L472 330L553 330L553 360L504 360L504 390L542 390L542 420L468 420L468 450L519 450L519 480L581 480L581 510L544 510L544 540L549 540L549 570L525 570L525 600L0 600L0 570L0 570L0 540L0 540L0 510L0 510L0 480L0 480L0 450L0 450L0 420L0 420L0 390L0 390L0 360L0 360L0 330L0 330L0 300L0 300L0 270L0 270L0 240L0 240L0 210L0 210L0 180L0 180L0 150L0 150L0 120L0 120L0 90L0 90L0 60L0 60L0 30L0 30L0 0L0 0Z" fill="#6f8190"></path><path d="M431 0L480 0L480 30L436 30L436 60L503 60L503 90L424 90L424 120L463 120L463 150L431 150L431 180L425 180L425 210L381 210L381 240L483 240L483 270L427 270L427 300L418 300L418 330L414 330L414 360L486 360L486 390L460 390L460 420L470 420L470 450L477 450L477 480L365 480L365 510L463 510L463 540L447 540L447 570L411 570L411 600L0 600L0 570L0 570L0 540L0 540L0 510L0 510L0 480L0 480L0 450L0 450L0 420L0 420L0 390L0 390L0 360L0 360L0 330L0 330L0 300L0 300L0 270L0 270L0 240L0 240L0 210L0 210L0 180L0 180L0 150L0 150L0 120L0 120L0 90L0 90L0 60L0 60L0 30L0 30L0 0L0 0Z" fill="#808f9c"></path><path d="M424 0L346 0L346 30L368 30L368 60L357 60L357 90L360 90L360 120L366 120L366 150L416 150L416 180L316 180L316 210L420 210L420 240L426 240L426 270L418 270L418 300L304 300L304 330L425 330L425 360L362 360L362 390L421 390L421 420L332 420L332 450L308 450L308 480L386 480L386 510L363 510L363 540L382 540L382 570L307 570L307 600L0 600L0 570L0 570L0 540L0 540L0 510L0 510L0 480L0 480L0 450L0 450L0 420L0 420L0 390L0 390L0 360L0 360L0 330L0 330L0 300L0 300L0 270L0 270L0 240L0 240L0 210L0 210L0 180L0 180L0 150L0 150L0 120L0 120L0 90L0 90L0 60L0 60L0 30L0 30L0 0L0 0Z" fill="#919da8"></path><path d="M357 0L269 0L269 30L263 30L263 60L334 60L334 90L259 90L259 120L237 120L237 150L228 150L228 180L231 180L231 210L232 210L232 240L234 240L234 270L328 270L328 300L326 300L326 330L235 330L235 360L256 360L256 390L326 390L326 420L234 420L234 450L350 450L350 480L314 480L314 510L246 510L246 540L268 540L268 570L275 570L275 600L0 600L0 570L0 570L0 540L0 540L0 510L0 510L0 480L0 480L0 450L0 450L0 420L0 420L0 390L0 390L0 360L0 360L0 330L0 330L0 300L0 300L0 270L0 270L0 240L0 240L0 210L0 210L0 180L0 180L0 150L0 150L0 120L0 120L0 90L0 90L0 60L0 60L0 30L0 30L0 0L0 0Z" fill="#a3acb4"></path><path d="M164 0L266 0L266 30L268 30L268 60L222 60L222 90L194 90L194 120L232 120L232 150L220 150L220 180L198 180L198 210L205 210L205 240L278 240L278 270L280 270L280 300L180 300L180 330L156 330L156 360L166 360L166 390L160 390L160 420L182 420L182 450L267 450L267 480L203 480L203 510L163 510L163 540L242 540L242 570L153 570L153 600L0 600L0 570L0 570L0 540L0 540L0 510L0 510L0 480L0 480L0 450L0 450L0 420L0 420L0 390L0 390L0 360L0 360L0 330L0 330L0 300L0 300L0 270L0 270L0 240L0 240L0 210L0 210L0 180L0 180L0 150L0 150L0 120L0 120L0 90L0 90L0 60L0 60L0 30L0 30L0 0L0 0Z" fill="#b5bbc0"></path><path d="M91 0L165 0L165 30L157 30L157 60L210 60L210 90L170 90L170 120L177 120L177 150L110 150L110 180L161 180L161 210L128 210L128 240L169 240L169 270L186 270L186 300L195 300L195 330L89 330L89 360L184 360L184 390L87 390L87 420L127 420L127 450L131 450L131 480L118 480L118 510L106 510L106 540L111 540L111 570L111 570L111 600L0 600L0 570L0 570L0 540L0 540L0 510L0 510L0 480L0 480L0 450L0 450L0 420L0 420L0 390L0 390L0 360L0 360L0 330L0 330L0 300L0 300L0 270L0 270L0 240L0 240L0 210L0 210L0 180L0 180L0 150L0 150L0 120L0 120L0 90L0 90L0 60L0 60L0 30L0 30L0 0L0 0Z" fill="#c7cacd"></path><path d="M74 0L86 0L86 30L51 30L51 60L79 60L79 90L57 90L57 120L127 120L127 150L76 150L76 180L134 180L134 210L136 210L136 240L48 240L48 270L124 270L124 300L50 300L50 330L49 330L49 360L101 360L101 390L103 390L103 420L45 420L45 450L46 450L46 480L72 480L72 510L49 510L49 540L107 540L107 570L87 570L87 600L0 600L0 570L0 570L0 540L0 540L0 510L0 510L0 480L0 480L0 450L0 450L0 420L0 420L0 390L0 390L0 360L0 360L0 330L0 330L0 300L0 300L0 270L0 270L0 240L0 240L0 210L0 210L0 180L0 180L0 150L0 150L0 120L0 120L0 90L0 90L0 60L0 60L0 30L0 30L0 0L0 0Z" fill="#d9d9d9"></path></svg>