<svg id="visual" viewBox="0 0 1500 750" width="1500" height="750" xmlns="http://www.w3.org/2000/svg" xmlns:xlink="http://www.w3.org/1999/xlink" version="1.1"><path d="M0 69L22.7 72.7C45.3 76.3 90.7 83.7 136.2 83.7C181.7 83.7 227.3 76.3 272.8 82.7C318.3 89 363.7 109 409 114C454.3 119 499.7 109 545.2 101.5C590.7 94 636.3 89 681.8 87.7C727.3 86.3 772.7 88.7 818.2 82.3C863.7 76 909.3 61 954.8 61C1000.3 61 1045.7 76 1091 76C1136.3 76 1181.7 61 1227.2 57.3C1272.7 53.7 1318.3 61.3 1363.8 71.3C1409.3 81.3 1454.7 93.7 1477.3 99.8L1500 106L1500 0L1477.3 0C1454.7 0 1409.3 0 1363.8 0C1318.3 0 1272.7 0 1227.2 0C1181.7 0 1136.3 0 1091 0C1045.7 0 1000.3 0 954.8 0C909.3 0 863.7 0 818.2 0C772.7 0 727.3 0 681.8 0C636.3 0 590.7 0 545.2 0C499.7 0 454.3 0 409 0C363.7 0 318.3 0 272.8 0C227.3 0 181.7 0 136.2 0C90.7 0 45.3 0 22.7 0L0 0Z" fill="#284b63"></path><path d="M0 211L22.7 217.3C45.3 223.7 90.7 236.3 136.2 237.5C181.7 238.7 227.3 228.3 272.8 228.3C318.3 228.3 363.7 238.7 409 250C454.3 261.3 499.7 273.7 545.2 264.8C590.7 256 636.3 226 681.8 222.3C727.3 218.7 772.7 241.3 818.2 246.3C863.7 251.3 909.3 238.7 954.8 242.3C1000.3 246 1045.7 266 1091 268.5C1136.3 271 1181.7 256 1227.2 243.5C1272.7 231 1318.3 221 1363.8 226C1409.3 231 1454.7 251 1477.3 261L1500 271L1500 104L1477.3 97.8C1454.7 91.7 1409.3 79.3 1363.8 69.3C1318.3 59.3 1272.7 51.7 1227.2 55.3C1181.7 59 1136.3 74 1091 74C1045.7 74 1000.3 59 954.8 59C909.3 59 863.7 74 818.2 80.3C772.7 86.7 727.3 84.3 681.8 85.7C636.3 87 590.7 92 545.2 99.5C499.7 107 454.3 117 409 112C363.7 107 318.3 87 272.8 80.7C227.3 74.3 181.7 81.7 136.2 81.7C90.7 81.7 45.3 74.3 22.7 70.7L0 67Z" fill="#96a1ab"></path><path d="M0 346L22.7 341C45.3 336 90.7 326 136.2 322.3C181.7 318.7 227.3 321.3 272.8 333.8C318.3 346.3 363.7 368.7 409 381.2C454.3 393.7 499.7 396.3 545.2 382.7C590.7 369 636.3 339 681.8 342.7C727.3 346.3 772.7 383.7 818.2 388.7C863.7 393.7 909.3 366.3 954.8 357.7C1000.3 349 1045.7 359 1091 367.7C1136.3 376.3 1181.7 383.7 1227.2 381.2C1272.7 378.7 1318.3 366.3 1363.8 370.2C1409.3 374 1454.7 394 1477.3 404L1500 414L1500 269L1477.3 259C1454.7 249 1409.3 229 1363.8 224C1318.3 219 1272.7 229 1227.2 241.5C1181.7 254 1136.3 269 1091 266.5C1045.7 264 1000.3 244 954.8 240.3C909.3 236.7 863.7 249.3 818.2 244.3C772.7 239.3 727.3 216.7 681.8 220.3C636.3 224 590.7 254 545.2 262.8C499.7 271.7 454.3 259.3 409 248C363.7 236.7 318.3 226.3 272.8 226.3C227.3 226.3 181.7 236.7 136.2 235.5C90.7 234.3 45.3 221.7 22.7 215.3L0 209Z" fill="#d9d9d9"></path><path d="M0 571L22.7 568.5C45.3 566 90.7 561 136.2 549.8C181.7 538.7 227.3 521.3 272.8 531.3C318.3 541.3 363.7 578.7 409 587.3C454.3 596 499.7 576 545.2 564.8C590.7 553.7 636.3 551.3 681.8 548.8C727.3 546.3 772.7 543.7 818.2 531.2C863.7 518.7 909.3 496.3 954.8 486.3C1000.3 476.3 1045.7 478.7 1091 483.7C1136.3 488.7 1181.7 496.3 1227.2 522.7C1272.7 549 1318.3 594 1363.8 609C1409.3 624 1454.7 609 1477.3 601.5L1500 594L1500 412L1477.3 402C1454.7 392 1409.3 372 1363.8 368.2C1318.3 364.3 1272.7 376.7 1227.2 379.2C1181.7 381.7 1136.3 374.3 1091 365.7C1045.7 357 1000.3 347 954.8 355.7C909.3 364.3 863.7 391.7 818.2 386.7C772.7 381.7 727.3 344.3 681.8 340.7C636.3 337 590.7 367 545.2 380.7C499.7 394.3 454.3 391.7 409 379.2C363.7 366.7 318.3 344.3 272.8 331.8C227.3 319.3 181.7 316.7 136.2 320.3C90.7 324 45.3 334 22.7 339L0 344Z" fill="#96a1ab"></path><path d="M0 751L22.7 751C45.3 751 90.7 751 136.2 751C181.7 751 227.3 751 272.8 751C318.3 751 363.7 751 409 751C454.3 751 499.7 751 545.2 751C590.7 751 636.3 751 681.8 751C727.3 751 772.7 751 818.2 751C863.7 751 909.3 751 954.8 751C1000.3 751 1045.7 751 1091 751C1136.3 751 1181.7 751 1227.2 751C1272.7 751 1318.3 751 1363.8 751C1409.3 751 1454.7 751 1477.3 751L1500 751L1500 592L1477.3 599.5C1454.7 607 1409.3 622 1363.8 607C1318.3 592 1272.7 547 1227.2 520.7C1181.7 494.3 1136.3 486.7 1091 481.7C1045.7 476.7 1000.3 474.3 954.8 484.3C909.3 494.3 863.7 516.7 818.2 529.2C772.7 541.7 727.3 544.3 681.8 546.8C636.3 549.3 590.7 551.7 545.2 562.8C499.7 574 454.3 594 409 585.3C363.7 576.7 318.3 539.3 272.8 529.3C227.3 519.3 181.7 536.7 136.2 547.8C90.7 559 45.3 564 22.7 566.5L0 569Z" fill="#284b63"></path></svg>